<svg width="512" height="512" viewBox="0 0 512 512" fill="none" xmlns="http://www.w3.org/2000/svg" role="img" aria-label="Code Feedback">
  <defs><linearGradient id="g-color" x1="0" y1="0" x2="512" y2="512" gradientUnits="userSpaceOnUse"><stop stop-color="#1E293B"/><stop offset="1" stop-color="#020617"/></linearGradient></defs>
  <rect width="512" height="512" rx="112" fill="url(#g-color)"/>
  <path d="M150 120 H362 a48 48 0 0 1 48 48 V274 a48 48 0 0 1 -48 48 H242 l-46 52 v-52 H150 a48 48 0 0 1 -48 -48 V168 a48 48 0 0 1 48 -48 Z" fill="none" stroke="#FFFFFF" stroke-opacity="0.32" stroke-width="6"/>
  <circle cx="158" cy="178" r="13" fill="#F5C53D"/>
  <g fill="#FFFFFF">
    <rect x="190" y="164" width="150" height="28" rx="14"/>
    <rect x="158" y="208" width="196" height="28" rx="14"/>
    <rect x="190" y="252" width="120" height="28" rx="14"/>
  </g>
</svg>
